<?xml version='1.0' encoding='utf-8'?>
<svg xmlns="http://www.w3.org/2000/svg" width="512" height="512" viewBox="0 0 512 512"><circle cx="256" cy="256" r="240" fill="#4A90D9" /><circle cx="256" cy="256" r="220" fill="#5BA3E8" /><path d="M160 160 Q160 140 180 140 L240 140 Q260 140 260 160 L260 340 Q260 360 240 360 L180 360 Q160 360 160 340 Z" fill="#FFFFFF" opacity="0.95" /><path d="M252 160 Q252 140 272 140 L332 140 Q352 140 352 160 L352 340 Q352 360 332 360 L272 360 Q252 360 252 340 Z" fill="#FFFFFF" opacity="0.85" /><text x="210" y="280" font-family="Arial, sans-serif" font-size="80" font-weight="bold" fill="#4A90D9" text-anchor="middle">A</text><text x="302" y="280" font-family="Arial, sans-serif" font-size="70" font-weight="bold" fill="#E74C3C" text-anchor="middle">词</text><circle cx="140" cy="120" r="8" fill="#FFD700" opacity="0.8" /><circle cx="380" cy="130" r="6" fill="#FFD700" opacity="0.6" /><circle cx="130" cy="380" r="5" fill="#FFD700" opacity="0.7" /><circle cx="370" cy="370" r="7" fill="#FFD700" opacity="0.5" /></svg>